<svg width="643" height="641" viewBox="0 0 643 641" fill="none" xmlns="http://www.w3.org/2000/svg">
<path d="M428.217 351.043C426.849 353.576 423.095 358.951 421.401 361.534L406.558 383.929C395.29 400.883 384.767 418.226 373.154 435.033C363.482 449.306 354.767 464.657 344.564 478.562C337.517 488.165 322.512 488.9 311.885 485.683C308.331 484.608 304.728 482.172 302.648 479.209C298.531 473.342 294.766 467.243 290.896 461.227L270.993 430.902L202.817 330.2L159.663 266.227L147.24 248.193C144.538 244.284 134.629 231.003 136.268 226.654C137.594 225.867 157.007 226.093 159.864 226.086L193.965 226.072C199.408 226.075 213.615 225.046 217.42 228.15C220.49 230.616 223.784 236.84 226.14 240.41L234.471 252.782L261.868 293.356C267.381 301.523 273.355 310.049 278.536 318.384C280.125 319.863 283.793 326.367 285.355 328.582C297.097 345.216 308.026 362.379 319.255 379.321C320.228 380.79 323.146 383.896 325.067 384.047C327.502 384.239 330.22 382.407 331.771 380.703C340.867 369.35 349.26 357.183 357.692 345.387L415.653 262.995C418.04 259.542 431.979 238.28 434.322 236.995C435.433 236.386 497.417 236.464 502.569 236.963C501.566 239.447 499.158 242.55 497.473 244.684L454.815 310.216L436.867 337.847C434.766 341.062 430.339 348.308 428.217 351.043Z" fill="url(#paint0_linear_1915_828)"/>
<path d="M217.424 228.15C220.494 230.616 223.788 236.84 226.143 240.41L234.474 252.782L261.872 293.356C267.385 301.523 273.358 310.049 278.54 318.384C277.08 318.006 276.668 316.388 275.65 315.28L275.566 315.74C276.156 316.532 276.492 316.816 276.544 317.786L276.23 318.019L275.266 317.434C275.236 318.399 275.309 319.043 274.873 319.911L273.912 320.072C271.563 324.516 270.857 321.239 269.638 320.76C266.084 319.367 263.273 321.003 261.279 316.718C259.761 315.855 258.809 316.169 257.405 314.763C250.434 307.783 242.835 300.345 235.378 293.989C232.774 291.77 231.035 286.991 228.806 285.043C221.199 278.392 216.54 271.141 211.084 262.981C207.067 256.932 203.441 250.258 198.9 244.52C196.831 241.905 192.805 238.033 197.01 235.526C200.778 230.366 216.786 230.915 218.161 230.066L217.424 228.15Z" fill="#0D5386"/>
<path d="M428.219 351.043L427.742 350.101C427.83 350.049 428.227 349.842 428.366 349.639C431.814 344.634 434.866 339.329 438.387 334.365C438.321 333.547 438.269 332.891 438.229 332.396L438.515 332.181L439.339 332.754L439.589 332.318L438.954 330.592C439.649 326.717 442.499 327.994 443.714 326.163C442.965 325.365 442.976 325.655 442.767 324.811L444.014 324.018C443.922 323.071 444.077 323.54 443.016 322.688C442.778 321.09 444.449 320.333 443.664 318.833L442.585 319.145L442.265 318.932L442.357 318.437C443.036 317.863 443.13 317.8 443.663 317.11L443.237 314.444C443.912 313.267 444.662 313.775 445.641 313.006C446.18 312.582 445.385 311.895 446.4 310.863L446.898 311.082L446.638 311.489C447.908 312.564 447.473 312.034 447.981 313.712C450.312 311.469 450.001 309.184 451.09 307.066C451.711 305.858 454.711 302.42 455.469 300.907C456.06 299.731 454.395 296.959 454.881 295.821C456.523 291.968 458.869 288.328 461.254 284.855C461.241 284.874 461.017 283.048 461.041 283.022C463.456 280.483 465.783 277.596 467.843 274.816C467.959 273.702 467.431 271.225 467.881 270.32C468.512 269.051 468.872 267.873 469.408 266.61C469.895 265.462 470.586 263.683 471.338 262.7C475.418 257.375 477.178 250.35 482.014 245.45C486.14 241.268 492.22 244.164 497.058 244.729C497.198 244.714 497.337 244.699 497.476 244.684L454.818 310.216L436.869 337.847C434.768 341.062 430.341 348.308 428.219 351.043Z" fill="#0D5386"/>
<path d="M53 152.071C60.5088 152.323 94.4613 151.172 98.6579 153.466C102.354 155.487 107.184 161.646 110.2 164.845C112.362 167.139 116.787 172.751 119.549 173.82C120.56 174.211 121.399 174.167 122.388 173.749C124.112 169.985 102.5 154.81 113.254 153.357C117.239 154.384 129.466 170.448 133.516 174.553C143.911 174.947 155.229 174.733 165.695 174.71L215.171 174.648L378.239 174.529L487.411 174.566L521.491 174.606C527.212 174.613 535.53 174.86 541.028 174.342C537.933 167.3 534.682 159.873 532.342 152.601C537.824 154.688 543.432 157.402 548.794 159.843L574.488 171.652C578.032 173.31 586.711 176.881 589.524 178.936C586.378 180.999 580.284 183.745 576.818 185.411L556.089 195.278C550.989 197.492 536.953 204.925 532.71 205.488C531.829 203.42 539.081 187.373 540.313 184.49C532.434 183.437 521.341 183.719 513.038 183.693L468.768 183.674L315.94 183.82L191.99 183.741L154.614 183.637C148.758 183.621 138.609 183.313 133.202 183.993C129.384 188.037 115.718 207.184 111.015 205.03C107.921 200.509 119.943 190.699 122.837 186.089L123.094 185.676C121.197 185.529 119.8 185.502 117.909 185.498C114.351 188.352 111.732 191.936 108.518 195.097C105.201 198.359 102.001 202.397 98.1825 205.077C96.3745 206.345 90.0018 205.745 87.5973 205.9C77.3258 205.869 67.0815 205.937 56.8155 205.837C56.0232 205.83 55.0586 205.742 54.441 205.248C54.9019 203.371 73.8074 183.18 76.9666 179.512C71.3009 172.797 65.6211 166.107 59.6188 159.663C57.3024 157.176 55.0695 154.758 53 152.071Z" fill="#042F55"/>
<defs>
<linearGradient id="paint0_linear_1915_828" x1="327.16" y1="486.347" x2="319.098" y2="221.082" gradientUnits="userSpaceOnUse">
<stop stop-color="#002848"/>
<stop offset="1" stop-color="#085189"/>
</linearGradient>
</defs>
</svg>
